<?xml version="1.0" encoding="utf-8"?>
<svg viewBox="0 0 500 500" xmlns="http://www.w3.org/2000/svg">
  <title>Tavola disegno 1</title>
  <rect class="cls-1" x="37.56" y="182.28" width="348.11" height="49.67" transform="matrix(0.707107, -0.707107, 0.707107, 0.707107, -152.042984, 152.561432)" style="fill: rgb(13, 59, 66);"/>
  <rect class="cls-1" x="186.63" y="244.15" width="49.67" height="347.69" transform="matrix(0.707107, -0.707107, 0.707107, 0.707107, -301.202972, 214.23143)" style="fill: rgb(13, 59, 66);"/>
  <rect class="cls-1" x="467.84" y="202.77" width="49.67" height="149.01" transform="matrix(0.707107, -0.707107, 0.707107, 0.707107, -119.332977, 371.86142)" style="fill: rgb(13, 59, 66);"/>
  <rect class="cls-1" x="199.9" y="234.99" width="198.98" height="49.67" transform="matrix(0.707107, -0.707107, 0.707107, 0.707107, -163.602982, 230.081436)" style="fill: rgb(13, 59, 66);"/>
  <rect class="cls-1" x="262.86" y="287.64" width="248.74" height="49.67" transform="matrix(0.707107, -0.707107, 0.707107, 0.707107, -175.112976, 307.61142)" style="fill: rgb(13, 59, 66);"/>
  <rect class="cls-1" x="248.29" y="393.01" width="348.11" height="49.67" transform="matrix(0.707107, -0.707107, 0.707107, 0.707107, -239.332962, 363.301422)" style="fill: rgb(13, 59, 66);"/>
</svg>